# xmcd
#
# Track frame offsets:
#        150
#        22252
#        53992
#        90482
#        104345
#        132767
#        153805
#        179222
#        185760
#        195515
#        219607
#        224452
#        239615
#        276627
#        295902
#        341280
#
# Disc length: 4795 seconds
#
# Revision: 0
# Processed by: cddbd v1.5.1PL0 Copyright (c) Steve Scherf et al.
# Submitted via: ExactAudioCopy v0.95a5
#
DISCID=0112b910
DTITLE=Louie Vega - Elements Of Life [CD1] (CCCD)
DYEAR=2003
DGENRE=House
TTITLE0=Jungle Fever
TTITLE1=Brand New Day - (feat. Blaze)
TTITLE2=Cerca De Mi - (feat. Raul Midon)
TTITLE3=Africa/Brasil
TTITLE4=Nos Vida - (feat. Anane)
TTITLE5=A Better Day - (feat. Raul Midon)
TTITLE6=Ma Mi Mama - (feat. Anane)
TTITLE7=Tu Y Yo
TTITLE8=Summer Night In Spanish Harlem
TTITLE9=Quimbombo - (feat. Domingo Quinones)
TTITLE10=Canto Para Chango
TTITLE11=Sunshine
TTITLE12=Elements of Life - (feat. Blaze)
TTITLE13=Mon Amour - (feat. Anane)
TTITLE14=Mozalounge
TTITLE15=deta
EXTD=
EXTT0=
EXTT1=
EXTT2=
EXTT3=
EXTT4=
EXTT5=
EXTT6=
EXTT7=
EXTT8=
EXTT9=
EXTT10=
EXTT11=
EXTT12=
EXTT13=
EXTT14=
EXTT15=
PLAYORDER=
